HIERARCHY
ROOT Hips
{
  OFFSET 0 89.5177 0.535
  CHANNELS 6 Xposition Yposition Zposition Zrotation Xrotation Yrotation
  JOINT Spine
  {
    OFFSET 12.0259 -0.162855 1.69034e-005
    CHANNELS 3 Zrotation Xrotation Yrotation
    JOINT Spine1
    {
      OFFSET 15.3169 -0.0121922 0
      CHANNELS 3 Zrotation Xrotation Yrotation
      JOINT Spine2
      {
        OFFSET 15.3176 -0.0121908 0
        CHANNELS 3 Zrotation Xrotation Yrotation
        JOINT Neck
        {
          OFFSET 19.9142 1.56338 0
          CHANNELS 3 Zrotation Xrotation Yrotation
          JOINT Head
          {
            OFFSET 6.92651 0 0
            CHANNELS 3 Zrotation Xrotation Yrotation
            End Site
            {
              OFFSET 20.7666 0 0
            }
          }
          JOINT LeftShoulder
          {
            OFFSET -6.20654 0.708824 7.28219
            CHANNELS 3 Zrotation Xrotation Yrotation
            JOINT LeftArm
            {
              OFFSET 14.108 0 -1.52588e-005
              CHANNELS 3 Zrotation Xrotation Yrotation
              JOINT LeftForeArm
              {
                OFFSET 28.5802 0 0
                CHANNELS 3 Zrotation Xrotation Yrotation
                JOINT LeftHand
                {
                  OFFSET 27.092 0 0
                  CHANNELS 3 Zrotation Xrotation Yrotation
                  End Site
                  {
                    OFFSET 9.55928 -0.186424 0.145352
                  }
                }
              }
            }
          }
          JOINT RightShoulder
          {
            OFFSET -6.20654 0.708866 -7.28218
            CHANNELS 3 Zrotation Xrotation Yrotation
            JOINT RightArm
            {
              OFFSET 14.108 0 1.52588e-005
              CHANNELS 3 Zrotation Xrotation Yrotation
              JOINT RightForeArm
              {
                OFFSET 28.5802 0 0
                CHANNELS 3 Zrotation Xrotation Yrotation
                JOINT RightHand
                {
                  OFFSET 27.092 0 0
                  CHANNELS 3 Zrotation Xrotation Yrotation
                  End Site
                  {
                    OFFSET 9.55929 -0.186417 -0.145354
                  }
                }
              }
            }
          }
        }
      }
    }
  }
  JOINT LeftUpLeg
  {
    OFFSET 0.005 -0.535 8.837
    CHANNELS 3 Zrotation Xrotation Yrotation
    JOINT LeftLeg
    {
      OFFSET 39.9035 0 0
      CHANNELS 3 Zrotation Xrotation Yrotation
      JOINT LeftFoot
      {
        OFFSET 39.6689 0 0
        CHANNELS 3 Zrotation Xrotation Yrotation
        JOINT LeftToe
        {
          OFFSET 10.1624 13.6296 0
          CHANNELS 3 Zrotation Xrotation Yrotation
          End Site
          {
            OFFSET 8.38147 0 0
          }
        }
      }
    }
  }
  JOINT RightUpLeg
  {
    OFFSET 0.005 -0.535 -8.837
    CHANNELS 3 Zrotation Xrotation Yrotation
    JOINT RightLeg
    {
      OFFSET 39.9035 0 0
      CHANNELS 3 Zrotation Xrotation Yrotation
      JOINT RightFoot
      {
        OFFSET 39.6689 0 0
        CHANNELS 3 Zrotation Xrotation Yrotation
        JOINT RightToe
        {
          OFFSET 10.1624 13.6296 0
          CHANNELS 3 Zrotation Xrotation Yrotation
          End Site
          {
            OFFSET 8.38147 0 0
          }
        }
      }
    }
  }
}
MOTION
Frames:	8
Frame Time:	0.0333333
57.984 86.8822 36.048 -81.4356 -47.6313 -169.177 4.10745 -0.256815 -0.775957 8.2112 -0.568043 -1.53144 8.2112 -0.568043 -1.53144 -8.30748e-012 -9.0191e-006 -5.27751e-005 3.62416 -19.2724 22.1324 -179.289 -2.42282 -73.6412 -19.8566 9.99809 59.1367 -104.92 -2.38542e-015 -3.18055e-015 -80.6543 -54.9907 -85.0283 -178.632 5.82478 76.7593 -23.9005 -6.86941 -61.3628 -110.372 -9.9237e-016 -3.18055e-015 -69.1002 35.7965 68.8554 -9.80444 7.94105 -178.895 -39.9145 3.18055e-015 -1.59028e-015 17.8711 6.105 -12.1149 90 7.95139e-016 -3.18055e-015 8.876 -12.3141 -178.979 -23.0815 6.36111e-015 1.59028e-015 25.8006 -3.32498 4.95683 90 -7.95139e-016 3.18055e-015 
60.4092 86.6063 35.2477 -81.504 -40.5693 -170.211 4.34071 -0.579454 -0.83047 8.67331 -1.21956 -1.61472 8.67331 -1.21956 -1.61473 -8.30907e-012 -9.0191e-006 -5.27751e-005 4.1982 -15.0264 20.8217 -179.59 -1.48792 -74.5935 -22.7618 9.57591 58.698 -106.381 4.77083e-015 -3.18055e-015 -78.3978 -54.875 -82.2429 -178.673 5.52405 76.4747 -18.8981 -6.39722 -61.2693 -111.282 -1.98785e-015 -9.54166e-015 -69.7078 36.4573 70.339 -8.6017 7.48931 179.81 -36.7278 3.18055e-015 -0 16.227 1.97707 -3.14256 90 -7.95139e-016 -0 5.01077 -12.1312 179.363 -34.2544 -3.18056e-015 -1.59028e-015 27.402 -6.18789 8.6029 90 3.97569e-015 3.18055e-015 
63.0619 86.1001 34.4664 -80.1722 -31.6796 -171.155 4.80803 -0.778427 -0.885288 9.60492 -1.62775 -1.70235 9.60492 -1.62775 -1.70236 -8.3051e-012 -9.0191e-006 -5.27751e-005 5.22966 -9.709 19.0599 -179.799 -0.747153 -74.961 -23.5054 7.83437 57.6002 -108.682 0 2.08724e-015 -76.5883 -53.5334 -79.7965 -178.794 5.13421 76.7626 -16.4707 -3.88397 -62.6302 -111.477 -3.18055e-015 9.54166e-015 -70.8649 38.3092 73.7718 -5.14512 6.13265 -179.018 -39.5811 3.18055e-015 -0 19.7049 0.314455 -1.11046 90 7.95139e-016 -3.18055e-015 -0.940208 -13.7871 177.467 -50.0302 -3.18056e-015 -1.59028e-015 23.6347 -7.43711 5.28234 90 1.59028e-015 3.18055e-015 
65.7398 85.1698 33.6357 -80.3715 -22.5878 -173.162 4.8121 -0.966683 -0.977295 9.60924 -2.01134 -1.87035 9.60924 -2.01134 -1.87036 -8.30828e-012 -9.0191e-006 -5.27751e-005 7.25801 -3.81521 16.3626 -179.719 -1.05016 -74.991 -22.6623 6.95687 56.8875 -112.079 0 -0 -74.7834 -49.9905 -76.7058 -178.705 5.71909 77.22 -18.9622 -1.12411 -64.0038 -109.639 -3.18055e-015 3.18055e-015 -70.1725 40.7038 74.4456 -0.320756 7.59488 -177.674 -39.346 -3.18055e-015 -1.59028e-015 24.7907 0.189967 -1.10999 90 -1.35422e-015 3.18055e-015 -9.61295 -16.1587 174.488 -63.6506 -7.95139e-016 -0 16.2639 -5.8565 2.30404 90 1.98785e-016 -1.59028e-015 
68.4033 84.4597 32.8992 -82.4126 -14.578 -174.951 4.3732 -1.21652 -1.1035 8.72532 -2.51297 -2.11162 8.72532 -2.51298 -2.11163 -8.305e-012 -9.0191e-006 -5.27751e-005 8.63496 1.5898 12.6099 -179.326 -2.49491 -74.8671 -20.2227 6.83353 58.1439 -115.286 0 -0 -78.8898 -43.5764 -80.1459 -178.557 6.28446 77.0446 -23.8814 1.11993 -64.1376 -107.858 -1.59028e-015 -0 -70.3694 42.1957 76.35 1.96632 12.3069 -177.213 -39.1254 -3.18055e-015 -0 27.7269 -0.131644 -0.672853 90 -4.96962e-016 -6.36111e-015 -19.1882 -18.7555 171.089 -70.0937 9.93923e-016 -0 11.6596 -2.77336 1.89005 90 -1.59028e-015 1.26725e-015 
71.2971 84.3813 32.3787 -84.3826 -8.71123 -177.578 4.11885 -1.40107 -0.76469 8.22246 -2.85287 -1.42725 8.22246 -2.85287 -1.42726 -8.30405e-012 -9.0191e-006 -5.27751e-005 7.74496 5.73265 8.81349 -179.093 -3.22809 -74.29 -17.2835 7.87212 61.0859 -118.713 3.97569e-016 -9.54166e-015 -67.9828 -65.7547 -70.5605 -178.409 6.84857 76.8847 -28.6581 3.31161 -63.7694 -106.27 -1.59028e-015 -3.18055e-015 -72.8801 41.8636 80.9134 4.43425 12.1247 -176.508 -37.4562 0 -0 28.9004 -0.682433 0.112526 90 -1.19271e-015 3.18055e-015 -25.051 -22.3296 170.888 -69.4528 3.18056e-015 6.36111e-015 13.0948 -4.22977 7.51638 90 0 2.38542e-015 
74.5446 84.755 32.1489 -85.3384 -3.92589 -179.754 4.21121 -1.35705 -0.497798 8.41411 -2.74648 -0.894805 8.41411 -2.74648 -0.894815 -8.30544e-012 -9.0191e-006 -5.27751e-005 5.46415 8.59672 7.07886 -179.279 -2.49456 -73.8776 -11.5523 9.73451 63.4848 -121.005 6.4605e-016 -0 -85.4911 -34.633 -87.8231 -178.324 6.91716 76.3469 -33.2811 4.50282 -63.2527 -105.366 3.18055e-015 -0 -76.7743 40.1408 87.834 8.32143 9.26397 -175.866 -34.8062 0 -0 27.0372 -0.290909 -1.31026 90 -4.96962e-016 -1.59028e-015 -26.2804 -25.1106 172.547 -63.1088 0 3.18056e-015 16.4233 -8.07007 17.7752 90 0 4.77083e-015 
78.0318 85.3402 32.2678 -86.1098 1.0189 178.927 4.39578 -0.834229 -0.301669 8.78855 -1.68863 -0.538468 8.78855 -1.68863 -0.538477 -8.30226e-012 -9.0191e-006 -5.27751e-005 2.92849 9.20902 5.9425 -179.517 -1.50691 -72.2348 -6.81887 11.5956 63.2539 -123.68 -2.98177e-016 -6.36111e-015 -76.5771 -66.9592 -79.9385 -178.335 7.30926 77.1318 -37.0187 3.96512 -63.1319 -107.368 -3.97569e-015 -0 -82.3064 34.2881 96.8217 11.9156 7.94889 -175.564 -32.2911 0 7.95139e-016 22.2781 1.26628 -4.32775 90 -3.97569e-016 7.95139e-016 -24.2961 -25.2267 175.971 -53.1176 3.18056e-015 6.36111e-015 21.2763 -11.1673 25.2326 90 6.36111e-015 4.77083e-015 
